<svg aria-hidden="true" style="position: absolute; width: 0; height: 0; overflow: hidden;" version="1.1" xmlns="http://www.w3.org/2000/svg" xmlns:xlink="http://www.w3.org/1999/xlink">
<defs>
<symbol id="icon-svg-one" viewBox="0 0 10 32">
<path d="M7.749 0.896l-0.645 19.874h-5.748l-0.642-19.874h7.035zM4.224 29.942c-0.997 0-1.856-0.352-2.575-1.061-0.655-0.638-1.061-1.528-1.061-2.513 0-0.022 0-0.043 0.001-0.065l-0 0.003c0-0.987 0.354-1.831 1.061-2.53 0.719-0.709 1.575-1.063 2.575-1.063 0.96 0 1.804 0.354 2.53 1.063 0.738 0.699 1.108 1.543 1.108 2.53 0 0.672-0.172 1.282-0.519 1.834-0.333 0.544-0.78 0.987-1.312 1.305l-0.017 0.010c-0.501 0.308-1.108 0.49-1.758 0.49-0.011 0-0.022-0-0.034-0h0.002z"></path>
</symbol>
</defs>
</svg>
